<svg width="24" height="24" viewBox="0 0 24 24" fill="none" xmlns="http://www.w3.org/2000/svg">
<g clip-path="url(#clip0_5:264)">
<path d="M11 6V14H18V12H13V6H11ZM2.6 15.397L0.801 16.303C0.499 15.519 0.28 14.696 0.149 13.843L2.147 13.684C2.247 14.274 2.4 14.846 2.6 15.397ZM6.993 22.898L7.662 20.999C7.113 20.734 6.594 20.422 6.107 20.066L4.694 21.509C5.402 22.054 6.172 22.521 6.993 22.898ZM1.674 18.103C2.114 18.844 2.63 19.533 3.213 20.161L4.617 18.728C4.186 18.257 3.803 17.746 3.468 17.2L1.674 18.103ZM11.996 0C9.206 0 6.647 0.964 4.611 2.562L2.428 0.379L1.072 7.392L8.087 6.038L6.037 3.989C7.703 2.744 9.761 2 11.996 2C17.512 2 21.999 6.486 21.999 12C21.999 17.514 17.512 22 11.996 22C11.148 22 10.328 21.882 9.541 21.683L8.876 23.577C9.872 23.844 10.915 24 11.996 24C18.625 24 24 18.627 24 12C24 5.373 18.625 0 11.996 0V0ZM0 11.849L2.015 11.688C2.042 10.985 2.14 10.302 2.303 9.641H0.227C0.085 10.355 0.01 11.094 0 11.849H0Z" fill="#EC0000"/>
</g>
<defs>
<clipPath id="clip0_5:264">
<rect width="24" height="24" fill="white"/>
</clipPath>
</defs>
</svg>
