<svg width="31" height="31" viewBox="0 0 31 31" fill="none" xmlns="http://www.w3.org/2000/svg">
<path d="M15.5 28.4167C8.37775 28.4167 2.58333 22.6223 2.58333 15.5C2.58333 8.37775 8.37775 2.58333 15.5 2.58333C22.6223 2.58333 28.4167 8.37775 28.4167 15.5C28.4167 22.6223 22.6223 28.4167 15.5 28.4167ZM15.5 31C24.0599 31 31 24.0599 31 15.5C31 6.94013 24.0599 0 15.5 0C6.94013 0 0 6.94013 0 15.5C0 24.0599 6.94013 31 15.5 31ZM12.9167 15.5L18.7292 9.6875L16.7568 7.75L9.04167 15.5L16.7568 23.25L18.7292 21.3125L12.9167 15.5Z" fill="#FF7979"/>
</svg>
