<svg width="31" height="31" viewBox="0 0 31 31" fill="none" xmlns="http://www.w3.org/2000/svg">
<path d="M15.5 2.58333C22.6222 2.58333 28.4167 8.37775 28.4167 15.5C28.4167 22.6222 22.6222 28.4167 15.5 28.4167C8.37775 28.4167 2.58333 22.6222 2.58333 15.5C2.58333 8.37775 8.37775 2.58333 15.5 2.58333ZM15.5 0C6.94012 0 0 6.94012 0 15.5C0 24.0599 6.94012 31 15.5 31C24.0599 31 31 24.0599 31 15.5C31 6.94012 24.0599 0 15.5 0ZM18.0833 15.5L12.2708 21.3125L14.2432 23.25L21.9583 15.5L14.2432 7.75L12.2708 9.6875L18.0833 15.5Z" fill="#FF7979"/>
</svg>
