<svg width="24" height="24" viewBox="0 0 24 24" fill="none" xmlns="http://www.w3.org/2000/svg">
<g clip-path="url(#clip0_5:256)">
<path d="M12 2.02002C17.514 2.02002 22 6.50602 22 12.02C22 17.534 17.514 22.02 12 22.02C6.486 22.02 2 17.534 2 12.02C2 6.50602 6.486 2.02002 12 2.02002ZM12 0.0200195C5.373 0.0200195 0 5.39302 0 12.02C0 18.647 5.373 24.02 12 24.02C18.627 24.02 24 18.647 24 12.02C24 5.39302 18.627 0.0200195 12 0.0200195ZM12 12.57L6.008 8.00002H17.991L12 12.57ZM12 13.858L6 9.22902V16H18V9.22902L12 13.858Z" fill="#EC0000"/>
</g>
<defs>
<clipPath id="clip0_5:256">
<rect width="24" height="24" fill="white"/>
</clipPath>
</defs>
</svg>
