<svg width="77" height="48" viewBox="0 0 77 48" fill="none" xmlns="http://www.w3.org/2000/svg">
<path d="M32.544 19.176C33.648 19.896 34.632 20.712 35.496 21.624C36.408 22.488 36.864 23.424 36.864 24.432C36.864 27.216 36.192 29.832 34.848 32.28C33.552 34.728 31.824 36.912 29.664 38.832C27.504 40.704 25.032 42.24 22.248 43.44C19.464 44.64 16.608 45.384 13.68 45.672C12.864 45.672 12.096 45.48 11.376 45.096C10.704 44.76 10.104 44.28 9.576 43.656C9.096 43.032 8.712 42.336 8.424 41.568C8.184 40.8 8.064 39.984 8.064 39.12C8.064 37.968 8.496 36.984 9.36 36.168C10.224 35.352 11.304 34.68 12.6 34.152C13.944 33.576 15.384 33.168 16.92 32.928C18.456 32.688 19.872 32.568 21.168 32.568C22.512 32.568 23.184 32.88 23.184 33.504C23.184 33.744 23.088 33.984 22.896 34.224C22.752 34.416 22.56 34.512 22.32 34.512C20.448 34.752 18.768 35.16 17.28 35.736C15.84 36.312 14.616 36.936 13.608 37.608C12.6 38.232 11.808 38.832 11.232 39.408C10.704 39.936 10.44 40.296 10.44 40.488C10.44 40.68 10.656 40.776 11.088 40.776C11.664 40.776 12.504 40.608 13.608 40.272C14.76 39.888 16.008 39.36 17.352 38.688C18.744 37.968 20.16 37.128 21.6 36.168C23.088 35.208 24.408 34.128 25.56 32.928C26.76 31.728 27.744 30.432 28.512 29.04C29.28 27.6 29.664 26.112 29.664 24.576C29.664 23.664 29.112 22.992 28.008 22.56C26.952 22.128 25.8 21.912 24.552 21.912C24.408 21.912 24.264 21.936 24.12 21.984C23.976 22.032 23.856 22.056 23.76 22.056C23.664 22.056 23.616 21.984 23.616 21.84C23.616 21.792 23.64 21.744 23.688 21.696L23.76 21.624C23.712 21.624 23.616 21.648 23.472 21.696C23.328 21.744 23.208 21.768 23.112 21.768C22.872 21.768 22.752 21.648 22.752 21.408V20.76V20.904C22.752 20.952 22.704 20.976 22.608 20.976C22.512 20.976 22.368 20.904 22.176 20.76C22.032 20.616 21.96 20.424 21.96 20.184C21.96 20.088 21.984 19.992 22.032 19.896C22.08 19.8 22.104 19.656 22.104 19.464C21.96 19.272 21.888 19.176 21.888 19.176C21.888 18.888 22.344 18.432 23.256 17.808C24.072 17.28 24.96 16.632 25.92 15.864C26.928 15.096 27.912 14.28 28.872 13.416C29.88 12.552 30.84 11.664 31.752 10.752C32.712 9.792 33.552 8.904 34.272 8.088C34.992 7.272 35.568 6.528 36 5.856C36.432 5.136 36.648 4.56 36.648 4.128C36.648 3.744 36.456 3.504 36.072 3.408C35.736 3.264 35.376 3.192 34.992 3.192C34.032 3.192 32.904 3.576 31.608 4.344C30.312 5.112 28.968 6.168 27.576 7.512C26.232 8.808 24.912 10.368 23.616 12.192C22.32 13.968 21.144 15.888 20.088 17.952C19.032 20.016 18.168 22.176 17.496 24.432C16.872 26.688 16.56 28.92 16.56 31.128C16.608 31.224 16.632 31.368 16.632 31.56C16.632 31.8 16.584 32.016 16.488 32.208C16.392 32.4 16.152 32.496 15.768 32.496H15.048C14.904 32.496 14.76 32.472 14.616 32.424C14.52 32.328 14.376 32.28 14.184 32.28C14.04 32.232 13.92 32.208 13.824 32.208C13.584 32.208 13.44 32.184 13.392 32.136C13.056 32.136 12.912 32.088 12.96 31.992C13.008 31.896 12.984 31.848 12.888 31.848C12.648 31.848 12.528 31.872 12.528 31.92C12.576 31.92 12.552 31.92 12.456 31.92C11.208 31.92 10.416 31.56 10.08 30.84C9.792 30.12 9.648 29.424 9.648 28.752C9.648 27.12 9.96 25.128 10.584 22.776C11.256 20.376 12.024 17.952 12.888 15.504C13.8 13.056 14.712 10.752 15.624 8.592C16.584 6.432 17.376 4.728 18 3.48C16.608 4.056 15.192 5.112 13.752 6.648C12.312 8.136 10.992 9.84 9.792 11.76C8.64 13.632 7.68 15.552 6.912 17.52C6.192 19.488 5.832 21.168 5.832 22.56C5.832 23.088 5.976 23.688 6.264 24.36C6.552 25.032 6.72 25.392 6.768 25.44C6.768 25.488 6.792 25.536 6.84 25.584C6.888 25.584 6.912 25.632 6.912 25.728C6.864 25.824 6.792 25.944 6.696 26.088C6.6 26.232 6.504 26.304 6.408 26.304C6.36 26.304 6.312 26.28 6.264 26.232C6.264 26.184 6.24 26.16 6.192 26.16C6.096 26.16 6.048 26.184 6.048 26.232C6.048 26.28 6 26.304 5.904 26.304C4.224 26.304 2.808 25.8 1.656 24.792C0.552 23.784 0 22.632 0 21.336C0 20.184 0.288 18.888 0.864 17.448C1.488 15.96 2.28 14.472 3.24 12.984C4.248 11.448 5.4 9.984 6.696 8.592C7.992 7.152 9.336 5.88 10.728 4.776C12.12 3.624 13.512 2.712 14.904 2.04C16.296 1.368 17.592 1.032 18.792 1.032C19.56 1.032 20.04 1.128 20.232 1.32C20.472 1.464 20.76 1.536 21.096 1.536C21.048 1.536 21.072 1.56 21.168 1.608C21.312 1.608 21.456 1.632 21.6 1.68C21.744 1.728 21.864 1.8 21.96 1.896C22.104 1.944 22.176 2.016 22.176 2.112C22.176 2.544 22.032 3.072 21.744 3.696C21.504 4.272 21.216 4.872 20.88 5.496C20.592 6.072 20.304 6.648 20.016 7.224C19.728 7.8 19.56 8.256 19.512 8.592C19.512 8.592 19.656 8.304 19.944 7.728C20.28 7.152 20.64 6.48 21.024 5.712C21.456 4.944 21.816 4.224 22.104 3.552C22.44 2.88 22.608 2.472 22.608 2.328C22.608 2.376 22.68 2.472 22.824 2.616C23.016 2.76 23.16 3.024 23.256 3.408C23.256 3.6 23.256 3.84 23.256 4.128C23.256 4.368 23.208 4.536 23.112 4.632C22.584 6.168 21.96 7.728 21.24 9.312C20.568 10.896 19.896 12.528 19.224 14.208C20.328 12.288 21.552 10.488 22.896 8.808C24.288 7.08 25.728 5.568 27.216 4.272C28.704 2.976 30.24 1.944 31.824 1.176C33.408 0.407999 34.968 0.0239997 36.504 0.0239997C37.32 0.0239997 38.04 0.167999 38.664 0.455998C39.288 0.743998 39.792 1.128 40.176 1.608C40.608 2.04 40.92 2.544 41.112 3.12C41.352 3.696 41.472 4.248 41.472 4.776C41.472 5.88 41.208 7.08 40.68 8.376C40.2 9.624 39.528 10.896 38.664 12.192C37.848 13.488 36.912 14.76 35.856 16.008C34.8 17.208 33.696 18.264 32.544 19.176ZM2.52 24.288C1.704 23.376 1.296 22.224 1.296 20.832C1.296 19.056 1.872 17.016 3.024 14.712C1.488 17.208 0.72 19.248 0.72 20.832C0.72 22.272 1.32 23.424 2.52 24.288ZM20.664 13.776C21.096 12.96 21.576 12.144 22.104 11.328C22.68 10.464 23.28 9.648 23.904 8.88C24.528 8.064 25.128 7.344 25.704 6.72C26.28 6.048 26.808 5.472 27.288 4.992C27.144 5.088 26.904 5.28 26.568 5.568C26.232 5.856 25.944 6.12 25.704 6.36C25.608 6.408 25.488 6.504 25.344 6.648C25.2 6.792 24.96 7.104 24.624 7.584C24.288 8.016 23.808 8.688 23.184 9.6C22.608 10.464 21.864 11.664 20.952 13.2C20.76 13.392 20.616 13.656 20.52 13.992V13.92L20.664 13.776ZM27.792 5.712C27.888 5.616 27.936 5.568 27.936 5.568V5.496L27.72 5.712C27.48 5.808 27.168 6.048 26.784 6.432C26.448 6.768 26.184 7.032 25.992 7.224C25.752 7.464 25.416 7.872 24.984 8.448C24.552 9.024 24.12 9.648 23.688 10.32C23.16 11.088 22.632 11.904 22.104 12.768C22.104 12.768 22.344 12.456 22.824 11.832C23.304 11.208 23.856 10.488 24.48 9.672C25.152 8.856 25.8 8.064 26.424 7.296C27.048 6.528 27.504 6 27.792 5.712ZM26.928 17.448C28.224 16.488 29.448 15.48 30.6 14.424C31.752 13.368 32.736 12.408 33.552 11.544C34.416 10.68 35.088 9.96 35.568 9.384C36.096 8.808 36.36 8.472 36.36 8.376C36.36 8.568 36.096 8.952 35.568 9.528C35.088 10.056 34.464 10.68 33.696 11.4C32.976 12.072 32.16 12.816 31.248 13.632C30.384 14.4 29.568 15.12 28.8 15.792C28.08 16.416 27.456 16.944 26.928 17.376C26.4 17.76 26.136 17.952 26.136 17.952C26.28 17.952 26.544 17.784 26.928 17.448ZM22.32 38.544C22.608 38.544 23.16 38.256 23.976 37.68C24.792 37.104 25.608 36.408 26.424 35.592C27.288 34.776 28.056 33.912 28.728 33C29.4 32.088 29.736 31.272 29.736 30.552C29.736 30.504 29.568 30.792 29.232 31.416C28.944 31.992 28.488 32.664 27.864 33.432C27.048 34.392 26.112 35.376 25.056 36.384C24.048 37.344 23.136 38.064 22.32 38.544ZM22.176 39.912V40.056C23.28 39.72 24.336 39.168 25.344 38.4C26.4 37.584 27.36 36.696 28.224 35.736C29.136 34.728 29.976 33.672 30.744 32.568C31.512 31.464 32.16 30.432 32.688 29.472L32.976 29.112L32.76 29.04C32.376 29.76 31.752 30.696 30.888 31.848C30.072 33 29.16 34.152 28.152 35.304C27.144 36.408 26.112 37.416 25.056 38.328C24 39.192 23.064 39.696 22.248 39.84L22.176 39.912ZM24.84 40.776C25.752 40.392 26.712 39.792 27.72 38.976C28.728 38.112 29.664 37.176 30.528 36.168C31.44 35.112 32.232 34.056 32.904 33C33.624 31.944 34.152 31.008 34.488 30.192C34.488 30.192 34.416 30.12 34.272 29.976C33.072 32.232 31.704 34.2 30.168 35.88C28.68 37.512 26.76 39.096 24.408 40.632C24.12 40.824 23.976 41.016 23.976 41.208C24.024 41.208 24.144 41.16 24.336 41.064C24.528 40.92 24.696 40.824 24.84 40.776ZM75.2113 2.616C75.4993 3 75.7393 3.432 75.9313 3.912C76.1713 4.344 76.2913 4.8 76.2913 5.28C76.2913 5.904 76.0513 6.624 75.5713 7.44C75.0913 8.256 74.5153 9.096 73.8433 9.96C73.2193 10.776 72.5233 11.592 71.7553 12.408C71.0353 13.176 70.4353 13.8 69.9553 14.28C68.7073 15.528 67.4353 16.752 66.1393 17.952C64.8433 19.152 63.4753 20.232 62.0353 21.192C61.7953 21.384 61.5073 21.48 61.1713 21.48C60.5473 21.48 59.9953 21.216 59.5153 20.688C59.0833 20.112 58.8673 19.464 58.8673 18.744C58.8673 18.168 59.0593 17.616 59.4433 17.088C59.7313 16.656 60.1153 16.104 60.5953 15.432C61.1233 14.76 61.6273 14.112 62.1073 13.488C62.5873 12.816 63.0433 12.24 63.4753 11.76C63.9073 11.28 64.1953 11.04 64.3393 11.04C64.5313 11.04 64.7233 11.112 64.9153 11.256C65.1073 11.352 65.2993 11.448 65.4913 11.544C66.4513 10.92 67.2913 10.128 68.0113 9.168C68.7793 8.16 69.4033 7.128 69.8833 6.072C68.2513 6.168 66.4273 6.552 64.4113 7.224C62.4433 7.896 60.4753 8.76 58.5073 9.816C56.5873 10.872 54.7633 12.048 53.0353 13.344C51.3073 14.592 49.8913 15.84 48.7873 17.088C48.6433 17.232 48.5473 17.4 48.4993 17.592C48.4993 18.168 48.7873 18.792 49.3633 19.464C49.9873 20.088 50.7313 20.712 51.5953 21.336C52.5073 21.96 53.4673 22.584 54.4753 23.208C55.4833 23.832 56.3713 24.384 57.1393 24.864C57.7633 25.296 58.5313 25.824 59.4433 26.448C60.3553 27.072 61.2193 27.768 62.0353 28.536C62.8993 29.256 63.6193 30.048 64.1953 30.912C64.8193 31.776 65.1313 32.64 65.1313 33.504C65.1313 33.792 65.0833 34.08 64.9873 34.368C64.5553 36.24 63.6913 37.992 62.3953 39.624C61.1473 41.208 59.6593 42.576 57.9313 43.728C56.2033 44.88 54.3313 45.792 52.3153 46.464C50.2993 47.136 48.3313 47.472 46.4113 47.472C45.7393 47.472 44.8753 47.352 43.8193 47.112C42.8113 46.872 41.8033 46.488 40.7953 45.96C39.8353 45.48 38.9953 44.88 38.2753 44.16C37.5553 43.44 37.1953 42.576 37.1953 41.568C37.1953 40.32 37.7713 39.312 38.9233 38.544C40.1233 37.728 41.5633 37.104 43.2433 36.672C44.9233 36.192 46.7233 35.856 48.6433 35.664C50.5633 35.472 52.2673 35.328 53.7553 35.232C54.3793 35.232 54.6913 35.496 54.6913 36.024C54.6913 36.456 54.4993 36.912 54.1153 37.392C53.7793 37.824 53.4193 38.064 53.0353 38.112C50.2033 38.4 47.4433 38.832 44.7553 39.408C44.6113 39.408 44.3713 39.456 44.0353 39.552C43.7473 39.648 43.4113 39.744 43.0273 39.84C42.6433 39.936 42.2593 40.056 41.8753 40.2C41.5393 40.296 41.2993 40.392 41.1553 40.488C41.5393 40.728 41.9473 40.896 42.3793 40.992C42.8593 41.04 43.2913 41.064 43.6753 41.064C46.7953 41.064 49.6273 40.56 52.1713 39.552C54.7153 38.496 56.6833 36.6 58.0753 33.864C58.0753 33.384 57.7393 32.88 57.0673 32.352C56.3953 31.776 55.5553 31.2 54.5473 30.624C53.5873 30.048 52.5553 29.496 51.4513 28.968C50.3953 28.392 49.4593 27.864 48.6433 27.384C47.7793 26.904 46.8193 26.352 45.7633 25.728C44.7553 25.056 43.8193 24.336 42.9553 23.568C42.0913 22.752 41.3473 21.888 40.7233 20.976C40.1473 20.064 39.8593 19.104 39.8593 18.096C39.8593 17.232 40.0273 16.368 40.3633 15.504C40.6993 14.64 41.1313 13.848 41.6593 13.128C43.1473 10.968 45.0193 9.096 47.2753 7.512C49.5793 5.928 52.0513 4.632 54.6913 3.624C57.3313 2.568 60.0433 1.8 62.8273 1.32C65.6593 0.791998 68.3713 0.527997 70.9633 0.527997C72.6913 0.527997 74.1073 1.224 75.2113 2.616ZM63.6193 36.096C59.7313 42.144 53.4673 45.672 44.8273 46.68C53.8033 46.104 60.0673 42.576 63.6193 36.096ZM43.5313 11.976C49.0993 7.176 56.8033 3.624 66.6433 1.32C56.3233 3.048 48.6193 6.6 43.5313 11.976Z" fill="#EC0000"/>
</svg>
