<svg width="1003" height="919" viewBox="0 0 1003 919" fill="none" xmlns="http://www.w3.org/2000/svg">
<path d="M298.62 533.075C270.02 558.666 253.46 594.801 242.917 630.937C235.389 655.024 230.877 682.121 238.404 707.712C244.428 731.807 262.492 751.378 282.06 766.428C297.116 779.979 316.691 793.53 337.764 796.542C357.339 801.051 376.907 793.53 393.474 781.485C416.051 767.933 435.626 745.352 444.658 721.264C455.194 694.168 447.673 667.065 440.146 639.969L298.62 533.075V533.075Z" fill="#7F0811"/>
<path d="M193.405 564.645C193.405 564.645 212.981 627.876 246.1 639.923C265.725 647.054 296.979 645.734 323.571 644.407C341.863 643.499 357.954 642.591 366.546 644.435C376.224 646.507 366.823 615.516 355.116 584.518C341.075 547.368 323.72 510.218 331.922 530.013C331.922 530.013 318.371 564.644 292.772 567.653C267.18 570.668 250.62 578.196 231.037 558.621C216.252 543.835 214.478 528.509 214.478 528.509L193.405 564.645V564.645Z" fill="#ED0000"/>
<path d="M728.314 805.092C735.872 801.315 745.203 800.874 753.493 803.341C754.92 774.11 753.422 736.512 734.018 718.152C713.388 698.628 648.205 657.931 648.205 657.931L550.348 812.999C550.348 812.999 587.115 804.027 605.861 798.399C625.935 792.376 668.101 788.804 680.137 790.373C695.527 792.376 697.811 804.303 699.542 815.135C700.01 818.052 700.634 821.647 701.365 825.644C707.877 816.428 718.881 809.443 728.314 805.092V805.092Z" fill="#A80404"/>
<path d="M648.398 646.425C648.398 646.425 675.498 659.471 671.483 678.544C667.467 697.614 643.378 710.661 643.378 710.661L648.398 646.425V646.425Z" fill="#ED0000"/>
<path d="M534.71 446.756C524.67 446.756 515.638 441.733 509.614 433.708C505.563 428.181 501.923 422.115 499.376 415.807C489.705 437.504 477.381 462.067 464.142 480.273C440.054 513.393 455.11 545.008 455.11 545.008L539.421 514.897C554.959 472.419 559.996 458.3 563.735 443.457C554.15 446.38 544.039 447.473 534.71 446.756V446.756Z" fill="#A80404"/>
<path d="M565.061 329.877C565.061 329.877 554.521 335.899 542.478 334.392C530.435 332.887 524.412 329.877 524.412 329.877C524.412 329.877 524.412 353.964 516.885 373.536C513.495 382.351 507.35 398.195 499.426 415.967C501.973 422.274 505.612 428.337 509.663 433.862C515.684 441.891 524.717 446.911 534.757 446.911C544.09 447.626 554.194 446.537 563.782 443.615C565.653 436.199 567.201 428.601 569.577 417.197C577.105 381.066 565.061 329.877 565.061 329.877V329.877Z" fill="#CA0000"/>
<path d="M639.076 716.882C578.851 755.024 526.658 794.173 456.398 807.22C438.484 811.059 422.025 817.437 406.396 825.273C424.463 835.348 446.746 810.964 486.509 808.221C530.17 805.21 609.155 786.021 630.232 772.471C643.778 763.759 650.482 733.285 653.145 705.426C648.898 709.861 644.255 713.776 639.076 716.882V716.882Z" fill="#A80404"/>
<path d="M639.024 716.846C644.203 713.738 648.844 709.822 653.093 705.387C654.569 689.899 654.803 675.219 654.264 665.534C652.76 638.438 651.561 571.298 580.809 523.122C510.05 474.947 463.066 493.912 463.066 493.912C463.066 493.912 329.076 539.079 324.557 569.183C320.037 599.295 314.02 587.247 327.565 611.342C341.116 635.43 350.149 664.03 360.692 695.646C371.228 727.268 384.51 804.603 401.141 821.229C402.843 822.932 404.575 824.24 406.341 825.226C421.972 817.398 438.432 811.02 456.34 807.181C526.603 794.134 578.794 754.985 639.024 716.846Z" fill="#ED0000"/>
<path d="M420.113 536.994L420.106 536.987C420.446 537.243 454.708 562.345 494.88 602.397C532.796 640.214 551.528 670.963 588.564 744.163L619.91 728.306C581.603 652.594 560.701 618.432 519.685 577.521C477.462 535.426 442.271 509.671 440.788 508.593L420.113 536.994V536.994Z" fill="white"/>
<path d="M401.406 748.023C401.406 748.023 411.444 743.868 416.596 728.322C454.087 719.752 509.2 687.861 534.807 655.195C535.505 654.305 536.19 653.397 536.862 652.476C540.247 657.402 543.59 662.535 546.962 667.966C542.619 676.118 537.705 685.213 536.815 686.797C494.656 743.004 401.406 748.023 401.406 748.023ZM419.529 710.542C419.615 707.832 419.573 704.938 419.378 701.845C418.115 681.837 396.666 667.732 386.258 659.693C374.863 652.087 350.25 634.768 335.067 613.519C334.689 612.991 334.31 612.448 333.93 611.892C333.973 611.94 334.016 611.988 334.059 612.036C341.552 621.252 382.256 635.364 390.267 640.139C428.615 662.997 431.203 689.65 419.529 710.542V710.542ZM562.188 627.433C559.674 623.896 557.13 620.447 554.531 617.054C558.929 603.587 561.535 589.19 562.222 574.993C559.136 566.933 553.935 559.568 551.09 551.43C555.34 556.602 559.718 561.817 562.393 567.734C562.428 552.856 560.314 538.403 555.887 525.71C554.112 521.312 552.505 516.806 550.915 512.265C553.333 517.658 555.686 523.406 557.958 529.527C562.606 546.357 569.935 574.375 565.224 604.969C564.6 612.659 563.626 620.164 562.188 627.433V627.433ZM551.09 551.43C550.019 550.131 548.955 548.833 547.933 547.527C549.338 548.712 550.863 549.564 550.863 550.805C550.934 551.011 551.012 551.224 551.09 551.43ZM547.933 547.527C547.06 546.797 546.23 545.938 545.847 544.782C546.514 545.704 547.216 546.619 547.933 547.527Z" fill="#AC0000"/>
<path d="M546.738 667.959C543.366 662.527 540.024 657.394 536.639 652.468C544.133 642.202 550.057 630.059 554.307 617.047C556.906 620.44 559.45 623.888 561.965 627.425C560.08 636.95 557.397 646.07 553.655 654.669C553.084 655.972 550.08 661.686 546.738 667.959V667.959Z" fill="#B9B9B9"/>
<path d="M809.57 837.171C792.835 831.936 781.458 856.028 762.904 861.255C754.455 863.636 752.852 854.018 751.347 841.98C750.761 837.289 752.861 822.051 753.773 803.422C745.483 800.955 736.152 801.396 728.594 805.172C719.161 809.524 708.157 816.508 701.645 825.724C705.098 844.637 711.001 872.922 714.728 885.347C719.245 900.404 723.76 915.453 734.298 918.465C744.837 921.476 759.893 907.925 759.893 907.925C759.893 907.925 760.197 905.843 756.699 898.859C788.302 895.808 811.093 878.953 818.605 867.278C831.258 847.632 818.503 839.962 809.57 837.171Z" fill="#2D1814"/>
<path d="M653.248 647.649C653.209 647.744 657.53 650.016 664.073 655.359C667.267 658.098 671.176 661.807 673.863 667.837C676.858 673.535 676.07 683.029 674.205 688.891C670.644 704.192 658.569 717.132 647.155 726.809C645.716 728.036 644.273 729.247 642.85 730.413C639.632 732.712 639.352 732.817 637.46 734.111C634.388 736.126 631.307 738.147 627.994 740.025C625.255 741.785 620.246 744.022 618.848 744.932C614.55 747.196 610.484 748.505 606.987 749.404C603.476 750.326 600.348 750.91 597.896 751.39C596.511 751.65 595.72 751.832 594.434 752.084C592.969 752.407 591.557 752.707 590.142 752.943C584.538 753.929 579.326 754.118 574.766 753.716C565.57 752.928 559.316 749.758 555.731 746.881C548.634 740.784 550.044 736.864 549.864 736.981C549.799 736.815 552.745 734.905 559.736 733.599C563.243 732.816 567.555 731.971 573.466 730.345C576.437 729.529 579.846 728.518 583.906 727.13C584.916 726.803 585.977 726.415 587.071 726.043C588.353 725.634 590.188 725.052 591.556 724.701C594.588 723.878 597.322 723.259 599.947 722.568C618.403 716.08 650.722 702.461 661.172 684.137C664.592 678.266 665.812 675.111 665.428 670.267C664.962 665.792 662.858 661.527 660.795 658.196C656.527 651.482 653.153 647.679 653.248 647.649V647.649Z" fill="white"/>
<path d="M650.488 626.839C649.697 628.153 648.891 629.513 648.068 630.954C639.23 644.712 620.412 658.591 596.73 669.913C573.929 681.86 544.97 687.884 515.557 695.955C500.914 700.253 487.713 703.005 473.124 706.047C465.968 707.575 458.828 709.112 451.733 710.944C444.78 712.761 438.898 714.187 432.422 715.691C405.976 721.314 385.901 726.556 370.653 731.249C372.812 739.955 375.062 749.151 377.408 758.241C393.28 756.664 413.705 753.526 439.96 747.945C446.402 746.463 453.799 744.505 460.363 742.537C466.797 740.634 473.631 738.799 480.651 736.838C494.462 733.103 510.424 728.214 524.27 722.509C551.971 711.704 582.05 701.112 605.184 684.155C627.294 669.066 644.67 651.253 651.907 635.085C651.507 632.418 651.037 629.664 650.488 626.839V626.839Z" fill="#483532"/>
<path d="M575.272 320.48C577.349 332.944 564.403 345.485 546.361 348.492C528.315 351.497 512.004 343.831 509.927 331.367C507.849 318.903 520.795 306.362 538.84 303.355C556.883 300.347 573.197 308.015 575.272 320.48Z" fill="white"/>
<path d="M229.196 529.123C236.875 538.73 231.482 555.798 217.156 567.249C202.829 578.696 184.993 580.19 177.315 570.585C169.638 560.978 175.03 543.91 189.357 532.462C203.681 521.012 221.52 519.516 229.196 529.123V529.123Z" fill="white"/>
<path d="M566.672 711.767L601.803 692.698L604.522 691.222L603.265 688.395L595.237 670.328L593.861 667.234L590.783 668.641L555.651 684.701L552.796 686.005L553.914 688.939L561.944 710.016L563.308 713.593L566.672 711.767V711.767ZM558.436 690.793L593.568 674.734L589.115 673.048L597.144 691.115L598.606 686.811L563.476 705.879L568.205 707.631L560.174 686.555L558.436 690.793Z" fill="#FFBD00"/>
<path d="M422.554 796.592C422.554 796.592 451.159 841.764 497.829 834.235C544.5 826.706 567.085 813.155 577.623 802.615C588.16 792.075 598.699 764.979 598.699 764.979C598.699 764.979 591.171 749.922 588.16 739.387C585.15 728.846 570.905 680.787 549.827 679.782C531.783 678.923 510.179 686.81 487.597 713.908C465.015 741.008 451.158 771.002 442.125 778.531C433.092 786.06 422.554 796.592 422.554 796.592V796.592Z" fill="#ED0000"/>
<path d="M484.99 714.239C485.405 714.294 475.377 727.545 466.695 745.112C465.641 747.292 464.835 749.594 463.932 751.856L462.891 755.309C462.532 756.239 462.944 755.648 461.947 757.824L461.447 759.44C460.131 763.808 459.284 769.114 458.066 774.86C457.222 778.155 457.235 779.946 455.258 784.84C454.231 787.513 453.183 790.154 452.118 792.732C449.99 797.888 447.792 802.815 445.549 807.348C433.759 828.924 422.285 832.984 416.419 835.381C410.435 837.478 406.909 836.359 406.944 836.319C406.979 836.28 404.517 833.781 405.775 826.488C406.859 819.433 413.244 809.192 420.684 795.042C422.926 790.509 425.512 785.771 428.321 780.954C429.725 778.542 431.186 776.113 432.687 773.67C433.2 773.442 434.784 769.665 435.832 767.537C438.247 762.389 440.737 756.602 444.498 750.934L445.948 748.837C445.603 749.791 446.628 747.946 446.9 747.654C447.798 746.338 448.693 745.05 449.58 743.792C451.51 741.445 453.357 739.136 455.327 737.162C471.206 721.657 485.149 714.655 484.99 714.239V714.239Z" fill="white"/>
<path fill-rule="evenodd" clip-rule="evenodd" d="M576.078 801.124C576.078 801.124 541.951 775.022 534.926 763.986C527.898 752.941 514.85 741.903 514.85 741.903C514.85 741.903 465.667 748.928 472.694 782.055C479.719 815.172 481.727 821.195 488.754 828.22C495.779 835.251 491.765 834.242 503.81 833.241C515.853 832.24 525.892 830.23 540.948 823.206C556.004 816.174 576.078 801.124 576.078 801.124V801.124Z" fill="url(#paint0_radial_8:113)"/>
<path d="M650.408 772.079C650.408 757.029 645.388 741.971 640.369 740.967C635.351 739.963 625.314 735.949 619.293 742.974C613.269 749.997 607.248 764.053 606.243 773.088L605.24 782.123C605.24 782.123 595.175 752.764 586.544 732.389C583.536 731.604 580.387 731.636 577.134 732.938C556.917 741.514 549.801 759.82 549.368 779.623C556.131 787.396 563.166 795.776 569.105 803.202C585.164 823.273 599.217 842.343 606.243 844.354C613.269 846.356 626.318 840.333 629.328 836.32C632.34 832.308 636.354 818.252 636.354 818.252L629.328 812.229C629.328 812.229 630.333 807.215 636.354 801.192C642.376 795.169 650.408 787.136 650.408 772.079V772.079Z" fill="#2D1814"/>
<path d="M600.78 842.611C600.948 842.666 602.355 805.993 608.297 782.651C614.332 759.402 617.739 758.416 617.342 758.306C617.728 758.432 617.149 760.506 611.224 783.359C605.371 806.269 600.943 842.651 600.78 842.611Z" fill="#B6A9A7"/>
<path d="M332.951 591.081C347.086 609.846 349.542 636.664 349.113 655.857L349.126 655.54C348.421 667.337 346.773 694.966 335.517 702.348L344.875 716.617C363.296 704.535 365.158 673.324 366.159 656.556L366.168 656.397L366.172 656.239C366.662 634.346 363.66 603.488 346.579 580.814L332.951 591.081V591.081Z" fill="#7F0811"/>
<path d="M546.576 327.581C556.737 321.23 563.724 313.608 562.454 300.904C561.82 290.742 555.468 279.31 545.304 275.498C539.588 272.956 531.965 272.956 525.614 272.321C519.262 271.686 512.911 272.321 507.195 275.498C495.761 281.849 486.869 292.647 493.22 305.987C498.937 318.689 510.37 326.311 523.709 326.947C529.426 327.581 535.777 328.853 541.493 328.216C549.116 328.216 546.576 327.581 546.576 327.581V327.581Z" fill="#7F0811"/>
<path d="M219.117 525.598C216.932 517.324 215.017 509.585 212.832 501.31C210.654 494.374 212.701 493.992 208.654 487.333C202.993 478.809 196.573 485.769 195.807 492.187C194.516 500.212 194.393 501.95 193.907 510.24C183.74 508.694 157.404 506.973 147 510.24C135.528 514.046 135.883 529.28 138.878 539.152C142.685 550.621 166.636 555.562 178.676 558.168C189.654 561.312 200.337 559.914 209.112 552.114C213.63 547.812 217.88 542.978 219.448 536.821C221.279 529.862 219.373 523.458 217.465 517.053L219.117 525.598V525.598Z" fill="#7F0811"/>
<path d="M834.261 -13.6013C777.012 114.5 640.993 280.899 531.353 300.247C419.522 319.981 210.788 105.501 147.99 -13.6013H139.056C166.033 39.0086 221.769 110.482 286.676 173.466C331.057 216.534 375.68 251.697 415.718 275.155C462.417 302.515 501.791 313.618 532.748 308.155C591.896 297.716 666.443 241.983 737.273 155.246C782.24 100.18 819.636 40.013 843.128 -13.6013H834.259H834.261Z" fill="#083521"/>
<path d="M493.115 290.966C491.777 299.666 492.445 306.358 500.475 311.711C507.836 316.394 516.533 317.063 525.235 316.394C533.265 315.726 541.293 313.049 544.637 305.018C548.654 297.659 549.325 289.629 542.632 283.606L493.115 290.966V290.966Z" fill="#7F0811"/>
<path d="M113.595 446.165L114.631 526.126L205.022 535.421L220.695 458.851L113.595 446.165V446.165Z" fill="#169165"/>
<path d="M220.141 473.494L223.611 456.821L112.616 443.716L112.935 462.298C148.694 465.236 184.375 469.918 220.141 473.494Z" fill="#169165"/>
<path d="M166.388 531.625L152.766 530.015L158.016 448.613L175.15 450.479L166.388 531.625Z" fill="#EE0000"/>
<path d="M217.208 468.443H172.841V473.489H217.208V468.443Z" fill="#106B4A"/>
<path d="M214.767 472.901C200.783 471.466 186.81 469.88 172.841 468.316L173.012 466.729C192.889 468.998 209.04 471.81 214.767 472.901Z" fill="#106B4A"/>
<path d="M156.309 468.447C133.431 465.788 116.078 462.848 115.106 462.848C115.079 462.848 115.065 462.85 115.064 462.855C115.065 462.828 115.487 462.812 116.287 462.812C117.175 462.812 118.528 462.831 120.285 462.877C132.34 463.948 144.388 465.194 156.434 466.506L156.309 468.447V468.447Z" fill="#106B4A"/>
<path d="M156.599 466.441C144.553 465.129 132.505 463.883 120.45 462.812C127.425 462.993 140.773 463.585 156.692 464.997L156.599 466.441Z" fill="#106B4A"/>
<path d="M172.968 470.121C170.765 469.912 168.519 469.691 166.238 469.456C162.97 469.115 159.775 468.76 156.683 468.401L156.808 466.459L156.901 465.016C160.044 465.295 163.285 465.605 166.6 465.951C168.885 466.186 171.136 466.431 173.339 466.683L173.168 468.27L172.968 470.121V470.121Z" fill="#B00000"/>
<path d="M166.418 454.043C166.295 454.08 166.325 448.568 163.786 440.744C162.504 436.885 160.551 432.436 157.477 428.529C155.814 425.931 154.385 424.658 152.24 422.991C150.285 421.497 147.773 420.71 147.264 421.113C146.804 420.991 145.019 423.378 144.96 424.929C144.695 426.545 145.461 428.648 146.768 430.662C149.447 434.714 153.27 438.151 156.292 441.047C162.633 446.738 166.097 451.038 165.948 451.102C165.995 450.955 161.447 448.421 153.856 444.36C150.131 442.166 145.56 439.664 141.249 434.866C139.212 432.479 136.957 429.016 137.104 424.42C137.567 420.061 139.029 415.751 144.727 413.29C150.694 411.756 154.386 414.763 157.122 416.816C159.745 418.977 162.211 422.273 163.216 424.63C166.39 430.104 167.46 435.535 167.823 439.965C168.444 448.937 166.265 454.055 166.418 454.043V454.043Z" fill="#EE0000"/>
<path d="M166.475 453.354C166.582 453.659 168.606 447.089 177.775 442.233C182.126 439.774 188.006 438.154 192.978 435.45C195.395 434.071 197.423 432.213 198.142 430.079C198.965 427.912 198.525 425.126 197.197 423.814C196.123 422.476 193.64 422.587 190.65 423.334C187.928 424.054 185.473 425.529 183.298 427.371C178.888 431.254 175.597 435.618 173.566 439.794C169.154 448.134 167.708 454.024 167.716 454.014C167.715 454.055 167.364 447.896 170.309 438.442C171.678 433.637 174.509 428.088 179.186 423.072C181.583 420.552 184.772 418.161 188.673 416.884C190.685 416.178 192.463 415.874 194.972 415.807C197.457 415.833 200.282 416.88 202.216 418.863C206.041 422.955 206.149 428.454 204.406 432.586C202.527 436.949 198.795 439.369 195.629 440.775C189.074 443.428 183.561 443.927 179.169 445.47C170.261 448.18 166.568 453.569 166.475 453.354V453.354Z" fill="#EE0000"/>
<path d="M446.57 408.242C448.578 413.262 449.581 418.28 452.592 423.299C455.604 429.321 456.607 431.329 462.63 434.339C466.644 436.347 470.659 438.355 474.674 440.362C478.689 441.366 486.719 444.377 488.727 449.395C481.701 449.395 476.681 448.392 470.659 447.389C466.644 446.385 464.637 445.38 461.626 443.372C458.614 442.37 455.604 442.37 453.596 440.362C449.581 437.351 449.581 429.321 448.578 424.302C446.57 419.284 445.566 413.262 445.566 407.239L446.57 408.242V408.242Z" fill="white"/>
<path d="M442.293 311.604C448.625 303.68 459.338 302.213 464.857 306.624C470.682 311.278 471.314 321.808 464.981 329.733C458.649 337.656 441.36 342.735 438.09 340.123C434.716 337.428 435.959 319.53 442.293 311.604Z" fill="#73FF73"/>
<path d="M469.597 291.444C469.597 291.444 472.069 291.269 474.668 293.36C477.062 295.288 478.24 298.086 478.24 298.086L469.759 311.696C469.759 311.696 467.621 308.819 464.772 306.621C461.923 304.424 458.787 303.256 458.787 303.256L469.597 291.444V291.444Z" fill="#0A1905"/>
<path d="M469.175 291.842C472.907 291.749 475.783 294.993 477.278 298.082C477.052 297.616 477.161 297.914 476.743 298.587C476.247 299.383 475.751 300.179 475.255 300.975C473.121 304.399 470.987 307.825 468.852 311.25H469.823C466.882 307.39 463.055 304.313 458.514 302.551C458.596 302.864 458.679 303.177 458.761 303.49C462.365 299.553 465.968 295.615 469.572 291.678C470.059 291.145 469.267 290.348 468.777 290.883C465.174 294.821 461.57 298.758 457.967 302.695C457.663 303.028 457.819 303.48 458.215 303.634C462.448 305.277 466.11 308.218 468.852 311.816C469.105 312.148 469.58 312.205 469.823 311.816C472.521 307.487 475.218 303.157 477.916 298.827C478.769 297.459 477.79 296.555 476.913 295.255C475.239 292.774 472.282 290.641 469.175 290.719C468.452 290.737 468.449 291.86 469.175 291.842V291.842Z" fill="#0A1905"/>
<path d="M151.651 59.1188C159.313 52.4682 170.114 52.9625 174.744 58.3003C179.632 63.9308 178.348 74.3999 170.688 81.0495C163.026 87.6975 145.105 89.5676 142.361 86.4072C139.53 83.1457 143.988 65.7668 151.651 59.1188Z" fill="#73FF73"/>
<path d="M181.691 43.9307C181.691 43.9307 184.154 44.2043 186.332 46.7324C188.34 49.062 188.992 52.0262 188.992 52.0262L178.19 63.8788C178.19 63.8788 176.606 60.6623 174.2 57.9851C171.797 55.3104 168.923 53.5934 168.923 53.5934L181.691 43.9307V43.9307Z" fill="#0A1905"/>
<path d="M181.606 44.5781C184.861 45.092 186.951 48.0767 188.101 50.9313C188.646 52.2857 188.824 51.554 187.908 52.5608C185.759 54.9188 183.61 57.2766 181.461 59.6346C180.511 60.6775 179.56 61.7198 178.61 62.7627C177.539 63.9382 178.851 63.8656 178.112 62.5427C175.999 58.7564 172.969 55.4926 169.271 53.2143V54.1847C173.528 50.9637 177.783 47.7424 182.039 44.5214C182.608 44.09 182.05 43.1141 181.472 43.551C177.216 46.7719 172.961 49.9933 168.705 53.2143C168.373 53.465 168.315 53.9444 168.705 54.1847C172.63 56.6034 175.693 60.1731 177.77 64.2684C177.93 64.5838 178.417 64.6398 178.652 64.3819C182.002 60.7059 185.352 57.0306 188.702 53.3546C191.746 50.0152 185.242 44.0215 181.905 43.495C181.197 43.383 180.892 44.4652 181.606 44.5781V44.5781Z" fill="#0A1905"/>
<path d="M654.493 184.99C662.523 191.185 664.17 201.873 659.857 207.466C655.3 213.372 644.784 214.181 636.754 207.986C628.722 201.789 623.346 184.591 625.905 181.276C628.544 177.857 646.461 178.793 654.493 184.99V184.99Z" fill="#FFF261"/>
<path d="M674.887 211.466C674.887 211.466 675.103 213.935 673.055 216.569C671.171 218.996 668.392 220.223 668.392 220.223L654.64 211.973C654.64 211.973 657.482 209.787 659.628 206.899C661.78 204.016 662.892 200.858 662.892 200.858L674.887 211.466V211.466Z" fill="#0A1905"/>
<path d="M674.4 211.531C674.531 214.68 672.214 217.202 669.808 218.886C669.337 219.217 668.82 219.486 668.307 219.746C668.69 219.553 668.755 219.806 668.123 219.426C665.276 217.719 662.431 216.012 659.585 214.305C658.376 213.579 657.166 212.853 655.956 212.128C654.58 211.302 654.978 212.571 656.124 211.591C659.425 208.77 662.006 205.152 663.508 201.073C663.195 201.155 662.882 201.238 662.569 201.321C666.568 204.856 670.566 208.393 674.565 211.929C675.105 212.406 675.902 211.615 675.359 211.134C671.36 207.598 667.362 204.063 663.364 200.526C663.032 200.233 662.575 200.368 662.424 200.774C660.836 205.091 657.914 208.807 654.318 211.641C654.026 211.871 654.149 212.354 654.432 212.523C658.806 215.147 663.181 217.772 667.555 220.396C668.944 221.23 669.816 220.247 671.11 219.342C673.559 217.627 675.652 214.637 675.523 211.531C675.493 210.81 674.37 210.807 674.4 211.531Z" fill="#0A1905"/>
<path d="M282.679 216.856C286.987 207.673 297.061 203.747 303.457 206.747C310.211 209.911 313.281 220.002 308.975 229.187C304.669 238.368 289.045 247.348 285.254 245.568C281.344 243.735 278.372 226.04 282.679 216.856V216.856Z" fill="#FFF261"/>
<path d="M303.984 190.771C303.984 190.771 306.345 190.024 309.361 191.452C312.139 192.767 313.939 195.214 313.939 195.214L308.868 210.427C308.868 210.427 306.117 208.127 302.834 206.658C299.551 205.185 296.228 204.783 296.228 204.783L303.984 190.771V190.771Z" fill="#0A1905"/>
<path d="M304.195 191.402C306.249 190.855 308.337 191.59 310.135 192.566C310.183 192.592 313.469 195.125 313.444 195.2C312.962 196.647 312.48 198.094 311.998 199.541C310.795 203.15 309.592 206.758 308.389 210.367C308.702 210.285 309.015 210.202 309.328 210.119C307 208.22 304.424 206.764 301.646 205.638C300.48 205.165 299.229 204.887 298.007 204.605C296.334 204.22 297.255 204.291 296.799 205.113C297.127 204.52 297.456 203.927 297.784 203.335C300.033 199.271 302.282 195.207 304.531 191.144C304.882 190.51 303.912 189.944 303.561 190.577C300.976 195.248 298.391 199.918 295.806 204.589C295.649 204.872 295.769 205.363 296.142 205.414C300.698 206.039 304.98 208.013 308.534 210.913C308.866 211.184 309.331 211.092 309.473 210.666C311.086 205.826 312.698 200.986 314.311 196.146C314.819 194.623 313.636 193.962 312.49 192.913C310.274 190.883 306.902 189.518 303.897 190.319C303.197 190.505 303.495 191.589 304.195 191.402V191.402Z" fill="#0A1905"/>
<path d="M612.599 311.618C605.374 304.5 605.028 293.693 609.986 288.659C615.217 283.347 625.755 283.809 632.981 290.928C640.208 298.046 643.47 315.767 640.533 318.749C637.502 321.826 619.828 318.738 612.599 311.618V311.618Z" fill="#00A4D6"/>
<path d="M595.394 282.947C595.394 282.947 595.475 280.47 597.828 278.103C599.992 275.92 602.895 275.038 602.895 275.038L615.554 284.883C615.554 284.883 612.47 286.713 609.991 289.319C607.51 291.924 606.024 294.924 606.024 294.924L595.394 282.947V282.947Z" fill="#0A1905"/>
<path d="M596.031 282.962C596.231 280.41 598.17 278.443 600.137 277.04C600.916 276.485 602.983 275.769 602.724 275.567C604.277 276.775 605.831 277.983 607.384 279.192C609.451 280.8 611.519 282.408 613.586 284.016C614.084 284.404 614.582 284.791 615.08 285.178C615.151 285.234 615.684 284.195 614.825 284.739C614.066 285.22 613.35 285.762 612.631 286.3C609.994 288.279 607.925 290.772 606.215 293.568C605.408 294.887 606.508 294.554 606.217 294.226C605.587 293.518 604.958 292.808 604.328 292.099C601.508 288.921 598.687 285.743 595.866 282.564C595.384 282.022 594.593 282.82 595.071 283.359C598.615 287.351 602.159 291.343 605.702 295.336C605.935 295.598 606.424 295.533 606.584 295.222C608.688 291.116 611.985 287.775 615.912 285.383C616.191 285.213 616.32 284.731 616.026 284.501C611.999 281.369 607.971 278.236 603.945 275.104C600.552 272.466 595.148 279.905 594.907 282.962C594.851 283.685 595.974 283.679 596.031 282.962V282.962Z" fill="#0A1905"/>
<path d="M844.689 39.1367C837.46 32.0185 837.113 21.2113 842.071 16.1769C847.298 10.865 857.838 11.3286 865.067 18.4473C872.297 25.5652 875.552 43.2855 872.62 46.2679C869.585 49.3441 851.918 46.2562 844.689 39.1367V39.1367Z" fill="#00A4D6"/>
<path d="M826.991 10.4668C826.991 10.4668 827.07 7.98992 829.419 5.62168C831.587 3.43961 834.488 2.55661 834.488 2.55661L847.149 12.403C847.149 12.403 844.067 14.2319 841.583 16.8381C839.1 19.4436 837.618 22.4432 837.618 22.4432L826.991 10.4668Z" fill="#0A1905"/>
<path d="M827.623 10.4814C827.82 7.9287 829.76 5.96195 831.731 4.55864C832.511 4.00371 834.576 3.28777 834.316 3.08608C835.869 4.29451 837.422 5.50238 838.976 6.71081C841.041 8.31902 843.114 9.92724 845.18 11.5355C845.676 11.9226 846.173 12.3097 846.67 12.6968C846.741 12.7526 847.277 11.7144 846.417 12.2591C845.661 12.7393 844.943 13.2801 844.226 13.8193C841.585 15.798 839.519 18.2915 837.809 21.0877C837.005 22.4059 838.101 22.0732 837.809 21.7452C837.178 21.0366 836.547 20.3271 835.917 19.6183C833.102 16.4405 830.28 13.2629 827.458 10.0841C826.977 9.54089 826.188 10.3388 826.662 10.8787C830.209 14.8709 833.749 18.8632 837.296 22.8544C837.525 23.1178 838.014 23.0524 838.179 22.7409C840.284 18.6353 843.579 15.2943 847.505 12.9024C847.781 12.7322 847.915 12.2497 847.616 12.0204C843.595 8.88814 839.567 5.7561 835.538 2.62329C832.148 -0.0153137 826.74 7.42183 826.504 10.4814C826.441 11.2036 827.568 11.1981 827.623 10.4814V10.4814Z" fill="#0A1905"/>
<path d="M279.71 121.999C270.81 126.86 260.361 124.072 256.974 117.872C253.399 111.329 256.886 101.376 265.788 96.5106C274.69 91.6483 292.596 93.6411 294.603 97.3156C296.674 101.104 288.615 117.134 279.71 121.999Z" fill="#00A4D6"/>
<path d="M247.286 130.241C247.286 130.241 244.938 129.449 243.35 126.513C241.885 123.811 241.879 120.776 241.879 120.776L254.96 111.5C254.96 111.5 255.822 114.981 257.6 118.107C259.378 121.234 261.82 123.524 261.82 123.524L247.286 130.241V130.241Z" fill="#0A1905"/>
<path d="M247.252 129.779C245.628 129.158 244.534 127.727 243.65 126.309C243.116 125.272 242.737 124.186 242.514 123.05C242.328 122.292 242.6 120.898 242.018 121.311C243.459 120.289 244.9 119.268 246.341 118.246C248.526 116.697 250.711 115.148 252.896 113.599C253.502 113.168 254.109 112.739 254.716 112.308C255.433 111.8 254.449 112.552 254.275 111.884C254.449 112.552 254.671 113.205 254.888 113.86C256.038 117.332 257.947 120.393 260.372 123.111C261.413 124.276 261.376 123.107 260.97 123.295C260.11 123.693 259.249 124.09 258.389 124.487C254.532 126.27 250.675 128.053 246.819 129.835C246.162 130.139 246.733 131.107 247.386 130.805C252.23 128.566 257.075 126.326 261.919 124.088C262.249 123.936 262.276 123.44 262.033 123.205C258.71 120.002 256.476 115.879 255.318 111.43C255.232 111.1 254.79 110.883 254.492 111.094C250.331 114.045 246.169 116.996 242.008 119.946C238.529 122.412 244.094 129.768 246.953 130.862C247.631 131.12 247.921 130.034 247.252 129.779Z" fill="#0A1905"/>
<path d="M417.28 241.183C409.688 247.911 398.883 247.527 394.196 242.241C389.25 236.661 390.423 226.18 398.015 219.451C405.605 212.723 423.505 210.664 426.283 213.797C429.147 217.027 424.871 234.452 417.28 241.183Z" fill="#FF4D4D"/>
<path d="M387.341 256.338C387.341 256.338 384.873 256.09 382.67 253.584C380.639 251.276 379.956 248.321 379.956 248.321L390.635 236.357C390.635 236.357 392.251 239.557 394.683 242.209C397.115 244.857 400.007 246.544 400.007 246.544L387.341 256.338V256.338Z" fill="#0A1905"/>
<path d="M387.419 255.867C385.607 255.601 384.268 254.515 382.997 253.258C382.074 252.154 381.359 250.931 380.856 249.586C380.599 248.969 380.756 248.257 380.315 248.752C381.491 247.433 382.667 246.116 383.844 244.798C385.628 242.8 387.411 240.802 389.195 238.803C389.69 238.248 390.185 237.694 390.681 237.139C391.27 236.478 390.461 237.446 390.153 236.854C390.471 237.466 390.834 238.053 391.191 238.643C393.091 241.775 395.636 244.318 398.61 246.427C399.895 247.338 399.567 246.197 399.206 246.475C398.456 247.055 397.707 247.635 396.956 248.215C393.595 250.814 390.235 253.413 386.873 256.012C386.301 256.454 387.102 257.243 387.668 256.806C391.889 253.542 396.112 250.277 400.334 247.012C400.629 246.784 400.5 246.298 400.22 246.13C396.269 243.753 393.167 240.218 391.049 236.144C390.887 235.834 390.402 235.768 390.167 236.03C386.855 239.74 383.543 243.451 380.232 247.161C377.225 250.529 383.813 256.464 387.121 256.95C387.829 257.055 388.134 255.973 387.419 255.867V255.867Z" fill="#0A1905"/>
<path d="M742.61 191.757C735.017 185.033 734.099 174.259 738.781 168.969C743.724 163.387 754.273 163.291 761.865 170.016C769.458 176.741 773.657 194.264 770.88 197.397C768.019 200.63 750.207 198.484 742.61 191.757V191.757Z" fill="#FF4D4D"/>
<path d="M724.168 163.864C724.168 163.864 724.116 161.384 726.34 158.895C728.386 156.6 731.239 155.567 731.239 155.567L744.4 164.727C744.4 164.727 741.419 166.718 739.08 169.452C736.742 172.184 735.416 175.259 735.416 175.259L724.168 163.864Z" fill="#0A1905"/>
<path d="M724.801 163.757C724.844 162.037 725.777 160.517 726.809 159.186C727.124 158.778 730.721 155.732 731.067 155.973C732.319 156.845 733.571 157.716 734.823 158.587C737.945 160.759 741.067 162.933 744.189 165.106V164.136C741.415 166.035 739.054 168.387 737.108 171.121C736.517 171.952 736.03 172.857 735.546 173.752C734.784 175.16 735.24 174.101 735.85 174.72C735.375 174.239 734.899 173.757 734.423 173.274C731.161 169.97 727.898 166.664 724.637 163.359C724.127 162.843 723.333 163.638 723.842 164.154C727.592 167.952 731.342 171.751 735.09 175.55C735.324 175.787 735.823 175.77 735.973 175.436C737.854 171.234 740.969 167.699 744.755 165.106C745.118 164.858 745.113 164.385 744.755 164.136C740.674 161.295 736.593 158.454 732.511 155.613C728.814 153.039 723.763 160.397 723.678 163.757C723.659 164.481 724.783 164.48 724.801 163.757V163.757Z" fill="#0A1905"/>
<path d="M756.054 60.5183C765.228 64.8448 769.132 74.9285 766.12 81.3188C762.942 88.063 752.843 91.1132 743.666 86.7882C734.493 82.4602 725.548 66.8164 727.335 63.0307C729.176 59.1279 746.878 56.1928 756.054 60.5183V60.5183Z" fill="#73FF73"/>
<path d="M782.024 82.0722C782.024 82.0722 782.764 84.4389 781.333 87.4487C780.011 90.2268 777.562 92.0195 777.562 92.0195L762.359 86.918C762.359 86.918 764.664 84.1716 766.142 80.8921C767.621 77.6125 768.031 74.2881 768.031 74.2881L782.024 82.0722V82.0722Z" fill="#0A1905"/>
<path d="M781.055 82.2846C781.596 84.3398 780.857 86.4257 779.878 88.2231C779.852 88.2712 777.314 91.5515 777.237 91.5262C775.791 91.0407 774.345 90.5558 772.899 90.0703C769.293 88.8601 765.686 87.65 762.08 86.4399C762.163 86.7528 762.246 87.0658 762.328 87.3787C764.232 85.0547 765.694 82.4816 766.826 79.706C767.301 78.54 767.583 77.2895 767.866 76.0669C768.256 74.394 768.182 75.3156 767.362 74.86C767.954 75.1896 768.546 75.5182 769.138 75.8478C773.196 78.1048 777.254 80.3625 781.313 82.6203C781.946 82.9728 782.512 82.0023 781.879 81.6499C777.215 79.0555 772.551 76.461 767.886 73.8659C767.602 73.7081 767.114 73.8296 767.062 74.2018C766.425 78.7575 764.442 83.0343 761.534 86.5842C761.262 86.9169 761.356 87.3804 761.781 87.5231C766.618 89.1462 771.454 90.7686 776.291 92.3918C777.812 92.9019 778.477 91.7186 779.528 90.5762C781.564 88.3627 782.93 84.994 782.138 81.9857C781.953 81.2857 780.87 81.5829 781.055 82.2846V82.2846Z" fill="#0A1905"/>
<path d="M477.166 456.271C466.296 432.332 458.385 444.55 455.207 436.717C447.587 417.943 445.096 404.172 442.088 393.699C440.662 393.423 439.236 393.146 437.774 392.77C419.306 389.818 400.674 394.083 383.674 400.461C359.494 409.344 334.853 423.307 318.173 443.436C305.565 458.563 298.094 478.159 304.366 497.436C309.254 512.726 321.436 524.568 335.158 531.862C348.873 539.141 364.95 542.93 380.191 544.321C397.708 545.811 415.439 544.094 431.367 537.204C449.29 529.605 464.189 515.912 474.108 499.487C481.295 488.035 483.112 469.361 477.166 456.271V456.271Z" fill="#FBBBA0"/>
<path d="M442.183 445.991C443.489 449.735 441.334 453.889 437.37 455.269C433.409 456.655 429.137 454.74 427.831 450.997C426.527 447.254 428.68 443.099 432.643 441.719C436.607 440.334 440.879 442.248 442.183 445.991Z" fill="#343434"/>
<path d="M442.139 393.774C442.194 393.971 442.253 394.169 442.309 394.365C443.761 394.65 445.214 394.93 446.7 395.313L442.139 393.774Z" fill="#FBBBA0"/>
<path fill-rule="evenodd" clip-rule="evenodd" d="M395.669 486.301C385.156 479.238 368.444 484.28 361.552 491.049C354.657 497.815 347.589 514.003 354.192 520.959C371.716 539.434 390.944 514.67 397.839 507.903C404.732 501.134 403.633 491.654 395.669 486.301Z" fill="url(#paint1_linear_8:113)"/>
<path d="M446.115 416.704C445.102 415.909 444.077 415.272 443.327 414.862C439.021 412.125 433.93 411.254 429.333 411.8C419.809 411.944 409.859 412.238 403.725 420.732L402.968 419.935C403.829 426.518 406.47 440.953 415.202 435.791C418.451 434.126 420.353 431.347 423.273 428.737C425.669 427.374 428.494 425.858 431.644 425.289C434.798 424.718 437.687 424.769 441.169 425.143C442.705 425.042 446.412 425.608 448.506 424.356C447.76 421.791 447.041 419.201 446.115 416.704Z" fill="white"/>
<path d="M443.608 417.766C444.532 420.263 445.262 422.85 446.015 425.41C446.437 425.149 446.79 424.804 447.029 424.343C447.714 421.938 445.683 419.495 443.608 417.766V417.766Z" fill="white"/>
<path fill-rule="evenodd" clip-rule="evenodd" d="M473.3 455.843C474.465 452.737 471.866 446.049 469.03 443.437C464.939 441.706 458.666 442.033 453.639 443.339C445.812 445.372 428.913 454.276 430.491 463.912C430.741 465.441 431.073 466.917 431.47 468.338C445.322 468.298 468.687 469.289 473.3 455.843V455.843Z" fill="url(#paint2_linear_8:113)"/>
<path d="M467.6 442.737C467.908 442.737 468.202 442.737 468.507 442.737C468.201 442.737 467.898 442.737 467.6 442.737Z" fill="white"/>
<path d="M555.654 525.516C547.232 504.643 542.599 481.357 525.542 463.286C518.007 455.311 507.57 449.464 500.249 446.179C488.506 442.83 480.354 441.568 467.845 442.596C470.761 443.022 474.167 452.536 472.84 456.063C468.782 467.89 450.711 463.278 436.478 468.302C435.35 471.182 434.094 473.758 434.13 479.938L404.287 491.269C398.768 506.991 381.867 515.718 369.884 519.315C368.018 520.543 366.102 521.6 364.016 522.529C359.795 523.083 357.12 523.069 356.85 522.941C354.296 522.04 348.662 521.366 346.129 520.422C339.957 518.102 331.003 507.807 328.725 494.476C327.441 486.976 328.52 479.789 326.817 472.339C326.675 471.949 322.368 457.531 322.29 457.191L279.627 487.87C279.053 490.112 283.977 513.845 284.452 519.046C284.927 524.246 287.013 530.22 289.099 536.201C293.236 543.999 298.777 547.163 305.205 547.674C305.34 548.341 305.496 549.03 305.666 549.732C305.51 551.96 305.368 554.152 305.397 556.004C306.283 562.404 304.332 579.127 333.827 611.842C341.319 621.059 382.023 635.171 390.034 639.946C442.232 671.057 428.177 709.201 402.081 730.28C438.216 728.272 505.463 692.137 534.574 655.001C551.092 633.922 560.578 603.945 561.99 574.799C558.903 566.739 553.703 559.374 550.858 551.236C549.786 549.938 548.722 548.639 547.7 547.334C546.828 546.603 545.997 545.744 545.614 544.588C546.281 545.51 546.984 546.426 547.7 547.334C549.105 548.519 550.631 549.37 550.631 550.612C550.701 550.818 550.779 551.03 550.858 551.236C555.108 556.408 559.485 561.623 562.16 567.54C562.196 552.662 560.081 538.209 555.654 525.516V525.516Z" fill="white"/>
<path d="M548.027 547.327C547.314 546.415 546.612 545.502 545.941 544.581C546.326 545.737 547.154 546.593 548.027 547.327Z" fill="white"/>
<path d="M547.9 547.519C548.925 548.821 549.986 550.119 551.056 551.418C550.98 551.21 550.903 551.003 550.833 550.796C550.833 549.556 549.306 548.7 547.9 547.519Z" fill="white"/>
<path d="M427.594 506.031C426.039 509.252 421.74 513.415 419.625 517.312C419.477 517.617 421.227 516.86 421.016 517.271C425.706 519.187 430.628 519.885 435.384 517.969C442.789 515.469 442.956 502.276 442.93 501.248C439.992 501.631 440.214 502.787 437.314 502.039C429.199 502.602 429.13 502.85 427.594 506.031V506.031Z" fill="#7F0811"/>
<path fill-rule="evenodd" clip-rule="evenodd" d="M412.274 492.041C410.025 492.041 407.714 491.769 405.319 491.186C405.298 491.181 405.278 491.176 405.257 491.171C394.605 488.617 395.877 476.081 403.957 472.37L403.821 472.618C403.999 472.49 404.17 472.356 404.353 472.228C408.177 469.106 413.606 465.388 418.253 463.324C421.033 462.177 424.337 461.343 427.523 461.343C432.045 461.343 436.331 463.024 438.541 467.88C438.648 468.117 438.752 468.363 438.85 468.616C438.907 468.765 438.971 468.914 439.028 469.078C441.809 477.045 434.565 484.495 428.066 487.653C422.976 490.384 417.82 492.041 412.274 492.041V492.041ZM402.202 473.834C401.898 474.062 401.775 474.154 401.775 474.154C401.775 474.154 401.952 474.021 402.202 473.834ZM403.276 473.027C402.805 473.381 402.464 473.637 402.226 473.816C402.536 473.583 402.948 473.273 403.276 473.027ZM403.531 472.837C403.456 472.893 403.384 472.946 403.315 472.999C403.393 472.94 403.466 472.885 403.531 472.837ZM403.64 472.754C403.635 472.758 403.63 472.762 403.626 472.766C403.63 472.762 403.635 472.758 403.64 472.754ZM403.737 472.682C403.733 472.684 403.729 472.687 403.725 472.691C403.729 472.687 403.734 472.684 403.737 472.682ZM426.651 465.251C425.95 465.251 425.189 465.377 424.426 465.644C422.007 466.488 420.474 468.418 421.013 469.965C421.382 471.018 422.622 471.613 424.144 471.613C424.845 471.613 425.606 471.487 426.37 471.22C428.059 470.639 429.314 469.518 429.733 468.368C429.627 468.368 429.513 468.375 429.407 468.375C429.513 468.375 429.627 468.368 429.733 468.368C429.917 467.871 429.946 467.368 429.783 466.907C429.414 465.848 428.173 465.251 426.651 465.251V465.251Z" fill="url(#paint3_linear_8:113)"/>
<path d="M403.949 490.509C403.937 490.387 407.64 492.157 413.317 490.722C418.83 489.42 426.423 485.666 432.137 479.598C434.917 476.573 436.27 473.064 435.423 470.116C434.607 467.113 431.921 464.901 429.381 463.835C424.141 461.613 420.043 462.682 420.119 462.508C420.093 462.748 423.563 460.228 430.149 461.421C433.278 462.048 437.432 464.02 439.449 468.682C441.534 473.425 439.373 479.363 435.92 482.964C428.876 490.372 419.963 493.046 413.614 493.237C407.014 493.436 403.883 490.316 403.949 490.509V490.509Z" fill="#B34B4B"/>
<path fill-rule="evenodd" clip-rule="evenodd" d="M423.834 471.622C422.312 471.622 421.072 471.028 420.703 469.974C420.164 468.427 421.697 466.497 424.116 465.653C424.879 465.386 425.64 465.26 426.341 465.26C427.863 465.26 429.104 465.857 429.473 466.916C429.636 467.377 429.607 467.881 429.423 468.377C429.317 468.377 429.203 468.385 429.097 468.385C429.203 468.385 429.317 468.377 429.423 468.377C429.004 469.527 427.749 470.648 426.06 471.23C425.296 471.496 424.535 471.622 423.834 471.622V471.622Z" fill="url(#paint4_linear_8:113)"/>
<path d="M280.56 496.352L282.174 497.133L280.56 496.352Z" fill="white"/>
<path d="M299.015 530.036C298.473 530.389 297.502 529.081 297.732 527.872C297.889 526.864 298.364 526.384 298.961 526.033C299.503 525.682 300.474 526.991 300.245 528.197C300.089 529.208 299.611 529.689 299.015 530.036Z" fill="white"/>
<path fill-rule="evenodd" clip-rule="evenodd" d="M317.835 522.643C314.936 517.012 312.037 511.384 309.137 505.753C307.007 499.113 305.201 492.72 303.721 487.539C294.743 488.363 290.405 492.11 291.498 499.165C291.018 506.535 296.238 516.67 301.968 522.267C305.934 526.489 314.142 530.214 321.784 530.969C320.514 528.359 319.333 525.553 317.835 522.643Z" fill="url(#paint5_linear_8:113)"/>
<path d="M309.737 507.298C303.24 503.488 299.079 499.584 298.747 499.787C298.04 500.217 302.722 506.522 310.885 510.84C311.203 511.026 311.521 511.202 311.836 511.376C311.136 510.018 310.437 508.657 309.737 507.298Z" fill="#B34B4B"/>
<path d="M342.517 476.06C342.517 476.06 351.314 462.162 360.68 457.579C370.049 452.998 382.213 453.808 382.772 447.23C383.324 440.647 380.884 434.13 374.605 435.603C368.329 437.075 358.031 437.841 348.012 447.259C330.126 464.071 342.517 476.06 342.517 476.06Z" fill="white"/>
<path d="M388.272 478.201C388.283 478.251 386.304 477.856 383.861 477.784C382.659 477.745 381.4 477.978 380.663 478.407C379.945 478.886 379.567 479.322 378.668 480.182C376.918 481.958 374.571 484.712 372.685 486.619C370.792 488.588 369.237 489.767 369.233 489.747C369.248 489.734 368.757 487.911 368.694 485.067C368.739 482.268 368.919 478.14 372.593 474.147C374.431 472.188 377.609 470.849 380.318 471.189C383.003 471.523 384.727 472.833 385.794 473.963C387.909 476.313 388.211 478.227 388.272 478.201V478.201Z" fill="#343434"/>
<path d="M431.226 500.786C431.044 500.758 430.113 504.773 427.495 511.209C424.877 517.524 418.932 526.242 409.113 531.419C399.513 536.983 388.17 536.756 381.759 533.623C375.192 530.631 372.689 526.939 372.611 527.088C372.638 526.945 376.365 529.374 382.705 530.554C389.046 531.795 397.67 530.54 406.055 525.771C423.16 516.804 430.381 499.991 431.226 500.786Z" fill="#B3B3B3"/>
<path d="M467.597 464.578C467.6 464.625 468.698 464.23 470.847 464.287C472.917 464.37 476.391 465.095 479.222 468.295C480.607 469.856 481.734 471.96 482.313 474.376C482.625 475.584 482.75 476.864 482.781 478.183C482.583 480.178 482.269 481.063 481.785 482.47C479.856 487.558 476.511 492.299 471.609 496.185C466.526 500.003 460.725 501.514 455.893 502.33C451.083 503.179 446.46 503.52 442.759 503.384C438.792 503.336 435.974 502.264 434.016 502.194C432.03 502.069 430.881 502.382 430.877 502.328C430.894 502.382 431.844 501.687 433.94 501.195C436.067 500.665 439.154 500.92 442.485 500.185C446.081 499.512 450.067 498.463 454.659 497.055C459.187 495.697 463.805 494.011 467.702 491.09C471.557 488.073 474.844 484.095 476.798 480.351C477.274 479.551 477.724 478.168 477.857 477.912C477.978 476.945 478.052 475.99 477.979 475.083C477.874 473.256 477.389 471.58 476.627 470.187C475.099 467.349 472.511 465.906 470.666 465.272C468.775 464.645 467.585 464.618 467.597 464.578V464.578Z" fill="#B3B3B3"/>
<path d="M406.678 498.802C406.619 498.795 404.613 501.224 402.016 505.741C400.619 507.919 398.841 510.749 395.596 512.916C391.788 514.793 388.675 515.57 384.774 516.899C376.685 519.178 368.961 518.792 363.846 516.15C358.718 513.271 358.561 509.21 358.412 509.468C358.496 509.273 359.968 512.8 364.686 514.179C369.183 515.526 376.512 514.811 383.491 512.816C387.06 511.632 391.33 510.632 393.765 509.8C396.456 508.465 398.541 506.269 400.326 504.426C403.799 500.526 406.682 498.732 406.678 498.802Z" fill="white"/>
<path d="M407.667 369.93C404.168 362.311 387.539 355.43 378.545 352.746C367.357 350.211 337.371 348.654 326.183 346.12C319.867 345.304 272.143 333.561 240.907 340.547C209.92 347.479 190.378 358.246 177.566 348.12C168.345 342.146 165.302 335.639 157.027 327.396C148.825 320.253 141.499 310.017 132.201 302.947C137.965 313.616 143.344 324.179 148.632 337.03C153.998 350.978 155.296 360.756 162.853 374.552C166.594 380.901 172.939 385.3 180.323 388.172C197.897 395.012 214.256 385.331 222.153 388.091C231.225 391.875 235.708 401.51 240.734 407.731C256.804 427.619 291.207 453.319 306.436 466.587L407.667 369.93V369.93Z" fill="#ED0000"/>
<path d="M167.491 323.94C164.834 336.383 152.594 344.317 140.15 341.663C127.709 339.003 119.776 326.766 122.431 314.326C125.087 301.881 137.327 293.949 149.769 296.604C162.21 299.258 170.146 311.504 167.491 323.94Z" fill="white"/>
<path d="M281.952 493.561C281.952 493.561 276.943 489.829 276.374 487.156C275.237 481.812 270.715 472.46 265.94 465.358C261.162 458.263 255.15 451.6 255.614 444.861C256.077 438.121 271.686 412.63 293.04 398.138C315.944 382.601 352.806 364.26 380.122 360.88C407.436 357.494 431.016 360.898 436.747 365.055C442.478 369.212 441.757 379.692 444.985 387.44C448.213 395.186 452.035 405.226 449.53 408.815C449.53 408.815 415.77 403.245 379.461 421.291C343.083 439.372 301.364 473.834 293.414 480.055C285.463 486.279 281.952 493.561 281.952 493.561V493.561Z" fill="white"/>
<path d="M444.134 409.111C444.188 409.437 433.983 407.223 418.106 409.326C402.516 412.15 381.628 420.738 360.715 433.317C355.255 436.534 350.768 439.507 345.493 442.967C340.179 446.029 336.087 448.685 331.625 452.085C323.026 458.431 315.239 464.238 308.619 468.969C302.067 473.773 296.439 477.445 292.373 479.463C288.424 481.68 286.456 483.272 286.436 483.245C286.454 483.275 288.17 481.397 291.861 478.673C295.691 476.132 300.649 472.007 306.754 466.604C312.907 461.284 320.173 454.927 328.522 448.06C332.431 444.707 337.638 440.975 342.412 438.096C346.829 435.022 352.379 431.203 357.621 428.15C379.199 415.203 401.164 407.771 417.799 406.33C434.446 405.703 444.134 409.455 444.134 409.111V409.111Z" fill="#8C7E7E"/>
<path d="M421.232 713.374C421.157 713.36 423.299 707.397 426.476 697.79C427.231 695.393 428.158 692.722 427.997 690.029C427.894 687.287 426.074 684.996 424.105 682.088C422.26 679.282 420.418 676.311 418.065 673.757C415.796 671.28 412.502 669.061 409.679 666.479C398.024 657.06 385.984 647.29 383.314 636.892C381.654 632.236 379.01 628.825 378.185 626.052C376.982 623.32 377.75 621.648 377.737 621.699C377.741 621.683 377.191 623.334 378.618 625.868C379.693 628.508 382.545 631.505 384.695 636.292C388.076 646.112 399.485 654.326 411.62 664.177C414.513 666.833 417.575 668.871 420.213 671.836C422.755 674.736 424.536 677.872 426.262 680.744C427.89 683.404 430.143 686.514 430.054 689.955C430.026 693.279 428.809 695.941 427.895 698.292C423.978 707.733 421.167 713.333 421.232 713.374V713.374Z" fill="white"/>
<path d="M419.232 650.831C418.942 651.093 424.775 652.268 429.775 659.738C434.357 667.691 433.634 680.364 429.939 693.018C426.079 706.251 413.376 713.772 404.73 713.399C400.381 713.815 396.4 711.946 395.681 709.378C394.839 707.05 395.25 705.684 395.143 705.702C395.238 705.664 395.059 707.114 396.103 709.172C397.066 711.393 400.545 712.597 404.596 711.899C413.016 711.257 423.335 704.304 427.097 692.023C430.573 680.188 432.01 667.761 428.451 660.455C424.513 653.16 418.922 651.014 419.232 650.831V650.831Z" fill="white"/>
<defs>
<radialGradient id="paint0_radial_8:113" cx="0" cy="0" r="1" gradientUnits="userSpaceOnUse" gradientTransform="translate(555.195 780.581) scale(63.7597 63.7596)">
<stop stop-color="#A80404"/>
<stop offset="1" stop-color="#ED0000"/>
</radialGradient>
<linearGradient id="paint1_linear_8:113" x1="377.854" y1="527.428" x2="376.157" y2="485.215" gradientUnits="userSpaceOnUse">
<stop stop-color="#FBBAA0"/>
<stop offset="1" stop-color="#F28274"/>
</linearGradient>
<linearGradient id="paint2_linear_8:113" x1="452.376" y1="467.975" x2="451.405" y2="443.83" gradientUnits="userSpaceOnUse">
<stop stop-color="#FBBAA0"/>
<stop offset="1" stop-color="#F28274"/>
</linearGradient>
<linearGradient id="paint3_linear_8:113" x1="397.094" y1="465.086" x2="431.393" y2="483.61" gradientUnits="userSpaceOnUse">
<stop stop-color="#FBBAA0"/>
<stop offset="1" stop-color="#F28274"/>
</linearGradient>
<linearGradient id="paint4_linear_8:113" x1="396.783" y1="465.095" x2="431.082" y2="483.619" gradientUnits="userSpaceOnUse">
<stop stop-color="#FDE6DD"/>
<stop offset="1" stop-color="#FBD3CD"/>
</linearGradient>
<linearGradient id="paint5_linear_8:113" x1="317.642" y1="515.385" x2="289.709" y2="496.055" gradientUnits="userSpaceOnUse">
<stop stop-color="#FBBAA0"/>
<stop offset="1" stop-color="#F28274"/>
</linearGradient>
</defs>
</svg>
